<svg width="768" height="240" viewBox="0 0 768 240" fill="none" xmlns="http://www.w3.org/2000/svg">
<rect width="768" height="240" fill="#592EA9"/>
<path opacity="0.6" d="M402.917 146.75C402.917 145.227 403.888 144.364 405.212 144.364C406.474 144.364 407.235 145.159 407.235 146.545V152H408.576V146.455C408.576 144.21 407.383 143.159 405.599 143.159C404.224 143.159 403.44 143.733 403.03 144.636H402.917V140.364H401.576V152H402.917V146.75ZM414.688 152.182C416.461 152.182 417.756 151.295 418.165 149.977L416.87 149.614C416.529 150.523 415.739 150.977 414.688 150.977C413.114 150.977 412.029 149.96 411.967 148.091H418.302V147.523C418.302 144.273 416.37 143.159 414.552 143.159C412.188 143.159 410.62 145.023 410.62 147.705C410.62 150.386 412.165 152.182 414.688 152.182ZM411.967 146.932C412.057 145.574 413.018 144.364 414.552 144.364C416.006 144.364 416.938 145.455 416.938 146.932H411.967ZM421.682 140.364H420.342V152H421.682V140.364ZM425.479 140.364H424.138V152H425.479V140.364ZM431.481 152.182C433.844 152.182 435.435 150.386 435.435 147.682C435.435 144.955 433.844 143.159 431.481 143.159C429.117 143.159 427.526 144.955 427.526 147.682C427.526 150.386 429.117 152.182 431.481 152.182ZM431.481 150.977C429.685 150.977 428.867 149.432 428.867 147.682C428.867 145.932 429.685 144.364 431.481 144.364C433.276 144.364 434.094 145.932 434.094 147.682C434.094 149.432 433.276 150.977 431.481 150.977ZM444.187 155.068C445.346 155.068 446.823 154.727 447.528 154.432L447.209 153.386C446.8 153.523 445.482 153.977 444.232 153.977C440.346 153.977 438.278 151.795 438.278 147.932C438.278 144.136 440.391 141.864 443.959 141.864C447.573 141.864 449.278 144.409 449.278 146.955C449.278 149.545 449.005 150.705 447.846 150.705C447.164 150.705 446.8 150.136 446.8 149.5V144.364H445.596V145H445.528C445.369 144.5 444.482 144.068 443.346 144.182C441.641 144.364 440.346 145.773 440.346 147.818C440.346 149.977 441.369 151.636 443.346 151.705C444.641 151.75 445.323 151.114 445.596 150.455H445.664C445.8 151.432 447.028 151.773 447.823 151.773C450.232 151.773 450.459 149.182 450.459 146.977C450.459 143.864 448.278 140.795 444.028 140.795C439.641 140.795 437.028 143.455 437.028 147.886C437.028 152.477 439.55 155.068 444.187 155.068ZM443.528 150.545C442.05 150.545 441.528 149.205 441.528 147.75C441.528 146.432 442.278 145.295 443.573 145.295C444.937 145.295 445.664 145.841 445.664 147.75C445.664 149.636 445.05 150.545 443.528 150.545ZM456.353 143.273H454.398V142.386C454.398 141.523 454.762 141.068 455.648 141.068C456.035 141.068 456.262 141.159 456.398 141.205L456.785 140.045C456.58 139.955 456.171 139.818 455.512 139.818C454.262 139.818 453.057 140.568 453.057 142.068V143.273H451.648V144.409H453.057V152H454.398V144.409H456.353V143.273ZM458.232 152H459.573V143.273H458.232V152ZM458.914 141.818C459.437 141.818 459.869 141.409 459.869 140.909C459.869 140.409 459.437 140 458.914 140C458.391 140 457.959 140.409 457.959 140.909C457.959 141.409 458.391 141.818 458.914 141.818ZM463.37 146.75C463.37 145.227 464.313 144.364 465.597 144.364C466.842 144.364 467.597 145.176 467.597 146.545V152H468.938V146.455C468.938 144.227 467.751 143.159 465.984 143.159C464.665 143.159 463.847 143.75 463.438 144.636H463.324V143.273H462.029V152H463.37V146.75ZM477.57 145.227C477.15 143.989 476.207 143.159 474.479 143.159C472.638 143.159 471.275 144.205 471.275 145.682C471.275 146.886 471.991 147.693 473.593 148.068L475.047 148.409C475.928 148.614 476.343 149.034 476.343 149.636C476.343 150.386 475.547 151 474.297 151C473.201 151 472.513 150.528 472.275 149.591L471.002 149.909C471.315 151.392 472.536 152.182 474.32 152.182C476.349 152.182 477.729 151.074 477.729 149.568C477.729 148.352 476.968 147.585 475.411 147.205L474.116 146.886C473.082 146.631 472.616 146.284 472.616 145.614C472.616 144.864 473.411 144.318 474.479 144.318C475.65 144.318 476.133 144.966 476.366 145.568L477.57 145.227ZM481.725 152H483.043L484.952 145.295H485.089L486.998 152H488.316L490.975 143.273H489.566L487.68 149.932H487.589L485.748 143.273H484.316L482.452 149.955H482.361L480.475 143.273H479.066L481.725 152ZM496.11 152.182C497.883 152.182 499.178 151.295 499.587 149.977L498.292 149.614C497.951 150.523 497.161 150.977 496.11 150.977C494.536 150.977 493.451 149.96 493.388 148.091H499.724V147.523C499.724 144.273 497.792 143.159 495.974 143.159C493.61 143.159 492.042 145.023 492.042 147.705C492.042 150.386 493.587 152.182 496.11 152.182ZM493.388 146.932C493.479 145.574 494.44 144.364 495.974 144.364C497.428 144.364 498.36 145.455 498.36 146.932H493.388ZM505.422 152.182C507.195 152.182 508.491 151.295 508.9 149.977L507.604 149.614C507.263 150.523 506.474 150.977 505.422 150.977C503.849 150.977 502.763 149.96 502.701 148.091H509.036V147.523C509.036 144.273 507.104 143.159 505.286 143.159C502.922 143.159 501.354 145.023 501.354 147.705C501.354 150.386 502.9 152.182 505.422 152.182ZM502.701 146.932C502.792 145.574 503.752 144.364 505.286 144.364C506.741 144.364 507.672 145.455 507.672 146.932H502.701ZM514.871 143.273H513.008V141.182H511.667V143.273H510.349V144.409H511.667V149.864C511.667 151.386 512.894 152.114 514.03 152.114C514.53 152.114 514.849 152.023 515.03 151.955L514.758 150.75C514.644 150.773 514.462 150.818 514.167 150.818C513.576 150.818 513.008 150.636 513.008 149.5V144.409H514.871V143.273ZM517.866 152.091C518.428 152.091 518.888 151.631 518.888 151.068C518.888 150.506 518.428 150.045 517.866 150.045C517.303 150.045 516.843 150.506 516.843 151.068C516.843 151.631 517.303 152.091 517.866 152.091ZM524.84 152.182C526.772 152.182 528.045 151 528.272 149.455H526.931C526.681 150.409 525.886 150.977 524.84 150.977C523.249 150.977 522.226 149.659 522.226 147.636C522.226 145.659 523.272 144.364 524.84 144.364C526.022 144.364 526.726 145.091 526.931 145.886H528.272C528.045 144.25 526.658 143.159 524.817 143.159C522.454 143.159 520.886 145.023 520.886 147.682C520.886 150.295 522.386 152.182 524.84 152.182ZM533.778 152.182C536.141 152.182 537.732 150.386 537.732 147.682C537.732 144.955 536.141 143.159 533.778 143.159C531.414 143.159 529.823 144.955 529.823 147.682C529.823 150.386 531.414 152.182 533.778 152.182ZM533.778 150.977C531.982 150.977 531.164 149.432 531.164 147.682C531.164 145.932 531.982 144.364 533.778 144.364C535.573 144.364 536.391 145.932 536.391 147.682C536.391 149.432 535.573 150.977 533.778 150.977ZM539.779 152H541.12V146.545C541.12 145.267 542.052 144.364 543.097 144.364C544.114 144.364 544.824 145.028 544.824 146.023V152H546.188V146.318C546.188 145.193 546.893 144.364 548.12 144.364C549.074 144.364 549.893 144.869 549.893 146.159V152H551.234V146.159C551.234 144.108 550.131 143.159 548.574 143.159C547.324 143.159 546.41 143.733 545.961 144.636H545.87C545.438 143.705 544.677 143.159 543.529 143.159C542.393 143.159 541.552 143.705 541.188 144.636H541.074V143.273H539.779V152Z" fill="white"/>
<path d="M405.645 123.293C404.811 123.293 404.076 123.117 403.438 122.766C402.812 122.401 402.292 121.906 401.875 121.281C401.458 120.643 401.139 119.914 400.918 119.094C400.71 118.26 400.605 117.382 400.605 116.457C400.605 115.507 400.71 114.621 400.918 113.801C401.139 112.98 401.458 112.258 401.875 111.633C402.292 110.995 402.812 110.5 403.438 110.148C404.076 109.797 404.811 109.621 405.645 109.621C406.491 109.621 407.227 109.797 407.852 110.148C408.49 110.5 409.017 110.995 409.434 111.633C409.85 112.258 410.163 112.98 410.371 113.801C410.579 114.621 410.684 115.507 410.684 116.457C410.684 117.382 410.579 118.26 410.371 119.094C410.163 119.914 409.85 120.643 409.434 121.281C409.017 121.906 408.49 122.401 407.852 122.766C407.227 123.117 406.491 123.293 405.645 123.293ZM405.645 120.91C406.035 120.91 406.374 120.799 406.66 120.578C406.96 120.357 407.207 120.044 407.402 119.641C407.598 119.237 407.741 118.768 407.832 118.234C407.936 117.688 407.988 117.095 407.988 116.457C407.988 115.819 407.936 115.233 407.832 114.699C407.741 114.152 407.598 113.677 407.402 113.273C407.207 112.87 406.96 112.557 406.66 112.336C406.374 112.102 406.035 111.984 405.645 111.984C405.254 111.984 404.909 112.102 404.609 112.336C404.323 112.557 404.082 112.87 403.887 113.273C403.704 113.677 403.561 114.152 403.457 114.699C403.366 115.233 403.32 115.819 403.32 116.457C403.32 117.095 403.366 117.688 403.457 118.234C403.561 118.768 403.704 119.237 403.887 119.641C404.082 120.044 404.323 120.357 404.609 120.578C404.909 120.799 405.254 120.91 405.645 120.91ZM412.637 123V121.906C413.887 120.552 414.935 119.406 415.781 118.469C416.641 117.531 417.285 116.73 417.715 116.066C418.158 115.402 418.379 114.81 418.379 114.289C418.379 113.612 418.158 113.091 417.715 112.727C417.285 112.362 416.745 112.18 416.094 112.18C415.508 112.18 414.928 112.336 414.355 112.648C413.783 112.961 413.307 113.312 412.93 113.703V110.93C413.32 110.591 413.841 110.292 414.492 110.031C415.143 109.758 415.84 109.621 416.582 109.621C417.48 109.621 418.262 109.79 418.926 110.129C419.603 110.454 420.13 110.917 420.508 111.516C420.885 112.102 421.074 112.792 421.074 113.586C421.074 114.237 420.977 114.836 420.781 115.383C420.586 115.917 420.293 116.451 419.902 116.984C419.525 117.505 419.062 118.065 418.516 118.664C417.982 119.263 417.37 119.947 416.68 120.715H421.172V123H412.637ZM428.105 123.293C427.272 123.293 426.536 123.117 425.898 122.766C425.273 122.401 424.753 121.906 424.336 121.281C423.919 120.643 423.6 119.914 423.379 119.094C423.171 118.26 423.066 117.382 423.066 116.457C423.066 115.507 423.171 114.621 423.379 113.801C423.6 112.98 423.919 112.258 424.336 111.633C424.753 110.995 425.273 110.5 425.898 110.148C426.536 109.797 427.272 109.621 428.105 109.621C428.952 109.621 429.688 109.797 430.312 110.148C430.951 110.5 431.478 110.995 431.895 111.633C432.311 112.258 432.624 112.98 432.832 113.801C433.04 114.621 433.145 115.507 433.145 116.457C433.145 117.382 433.04 118.26 432.832 119.094C432.624 119.914 432.311 120.643 431.895 121.281C431.478 121.906 430.951 122.401 430.312 122.766C429.688 123.117 428.952 123.293 428.105 123.293ZM428.105 120.91C428.496 120.91 428.835 120.799 429.121 120.578C429.421 120.357 429.668 120.044 429.863 119.641C430.059 119.237 430.202 118.768 430.293 118.234C430.397 117.688 430.449 117.095 430.449 116.457C430.449 115.819 430.397 115.233 430.293 114.699C430.202 114.152 430.059 113.677 429.863 113.273C429.668 112.87 429.421 112.557 429.121 112.336C428.835 112.102 428.496 111.984 428.105 111.984C427.715 111.984 427.37 112.102 427.07 112.336C426.784 112.557 426.543 112.87 426.348 113.273C426.165 113.677 426.022 114.152 425.918 114.699C425.827 115.233 425.781 115.819 425.781 116.457C425.781 117.095 425.827 117.688 425.918 118.234C426.022 118.768 426.165 119.237 426.348 119.641C426.543 120.044 426.784 120.357 427.07 120.578C427.37 120.799 427.715 120.91 428.105 120.91ZM442.344 123C442.344 122.036 442.467 121.099 442.715 120.188C442.975 119.263 443.307 118.358 443.711 117.473C444.128 116.587 444.583 115.721 445.078 114.875C445.586 114.016 446.087 113.169 446.582 112.336H440.762V109.914H450.039V111.027C449.336 112.199 448.704 113.28 448.145 114.27C447.585 115.246 447.103 116.197 446.699 117.121C446.309 118.046 446.003 118.983 445.781 119.934C445.573 120.884 445.469 121.906 445.469 123H442.344ZM456.367 109.621C457.24 109.621 458.047 109.823 458.789 110.227C459.531 110.63 460.13 111.21 460.586 111.965C461.042 112.72 461.27 113.612 461.27 114.641C461.27 115.344 461.159 116.034 460.938 116.711C460.716 117.388 460.423 118.046 460.059 118.684C459.694 119.309 459.297 119.895 458.867 120.441C458.451 120.975 458.04 121.464 457.637 121.906C457.233 122.336 456.882 122.701 456.582 123H453.164C453.568 122.622 453.997 122.219 454.453 121.789C454.922 121.346 455.378 120.897 455.82 120.441C456.276 119.973 456.693 119.504 457.07 119.035C457.448 118.566 457.741 118.104 457.949 117.648C457.65 117.935 457.318 118.176 456.953 118.371C456.589 118.553 456.191 118.645 455.762 118.645C454.98 118.645 454.271 118.462 453.633 118.098C453.008 117.72 452.513 117.212 452.148 116.574C451.784 115.936 451.602 115.227 451.602 114.445C451.602 113.781 451.719 113.163 451.953 112.59C452.188 112.004 452.52 111.49 452.949 111.047C453.379 110.591 453.88 110.24 454.453 109.992C455.039 109.745 455.677 109.621 456.367 109.621ZM456.426 112.023C456.048 112.023 455.697 112.121 455.371 112.316C455.046 112.499 454.785 112.759 454.59 113.098C454.408 113.423 454.316 113.801 454.316 114.23C454.316 114.621 454.408 114.973 454.59 115.285C454.785 115.598 455.046 115.845 455.371 116.027C455.697 116.21 456.048 116.301 456.426 116.301C456.816 116.301 457.168 116.21 457.48 116.027C457.806 115.845 458.066 115.598 458.262 115.285C458.47 114.973 458.574 114.621 458.574 114.23C458.574 113.801 458.47 113.423 458.262 113.098C458.066 112.759 457.806 112.499 457.48 112.316C457.168 112.121 456.816 112.023 456.426 112.023ZM467.598 109.621C468.47 109.621 469.277 109.823 470.02 110.227C470.762 110.63 471.361 111.21 471.816 111.965C472.272 112.72 472.5 113.612 472.5 114.641C472.5 115.344 472.389 116.034 472.168 116.711C471.947 117.388 471.654 118.046 471.289 118.684C470.924 119.309 470.527 119.895 470.098 120.441C469.681 120.975 469.271 121.464 468.867 121.906C468.464 122.336 468.112 122.701 467.812 123H464.395C464.798 122.622 465.228 122.219 465.684 121.789C466.152 121.346 466.608 120.897 467.051 120.441C467.507 119.973 467.923 119.504 468.301 119.035C468.678 118.566 468.971 118.104 469.18 117.648C468.88 117.935 468.548 118.176 468.184 118.371C467.819 118.553 467.422 118.645 466.992 118.645C466.211 118.645 465.501 118.462 464.863 118.098C464.238 117.72 463.743 117.212 463.379 116.574C463.014 115.936 462.832 115.227 462.832 114.445C462.832 113.781 462.949 113.163 463.184 112.59C463.418 112.004 463.75 111.49 464.18 111.047C464.609 110.591 465.111 110.24 465.684 109.992C466.27 109.745 466.908 109.621 467.598 109.621ZM467.656 112.023C467.279 112.023 466.927 112.121 466.602 112.316C466.276 112.499 466.016 112.759 465.82 113.098C465.638 113.423 465.547 113.801 465.547 114.23C465.547 114.621 465.638 114.973 465.82 115.285C466.016 115.598 466.276 115.845 466.602 116.027C466.927 116.21 467.279 116.301 467.656 116.301C468.047 116.301 468.398 116.21 468.711 116.027C469.036 115.845 469.297 115.598 469.492 115.285C469.701 114.973 469.805 114.621 469.805 114.23C469.805 113.801 469.701 113.423 469.492 113.098C469.297 112.759 469.036 112.499 468.711 112.316C468.398 112.121 468.047 112.023 467.656 112.023ZM478.184 123.293C477.48 123.293 476.823 123.189 476.211 122.98C475.612 122.759 475.137 122.499 474.785 122.199V119.641C475.085 119.836 475.384 120.031 475.684 120.227C475.996 120.422 476.328 120.585 476.68 120.715C477.044 120.832 477.448 120.891 477.891 120.891C478.568 120.891 479.128 120.734 479.57 120.422C480.026 120.096 480.254 119.628 480.254 119.016C480.254 118.651 480.137 118.345 479.902 118.098C479.668 117.85 479.362 117.668 478.984 117.551C478.62 117.434 478.229 117.375 477.812 117.375H476.738V115.266H477.812C478.268 115.266 478.678 115.227 479.043 115.148C479.408 115.057 479.701 114.908 479.922 114.699C480.143 114.491 480.254 114.204 480.254 113.84C480.254 113.449 480.137 113.124 479.902 112.863C479.681 112.59 479.382 112.382 479.004 112.238C478.639 112.095 478.242 112.023 477.812 112.023C477.253 112.023 476.758 112.141 476.328 112.375C475.911 112.596 475.514 112.889 475.137 113.254V110.715C475.475 110.402 475.905 110.142 476.426 109.934C476.96 109.725 477.552 109.621 478.203 109.621C479.128 109.621 479.948 109.784 480.664 110.109C481.38 110.422 481.94 110.865 482.344 111.438C482.747 111.997 482.949 112.648 482.949 113.391C482.949 113.977 482.819 114.478 482.559 114.895C482.298 115.298 481.973 115.624 481.582 115.871C481.191 116.118 480.794 116.281 480.391 116.359C480.794 116.451 481.191 116.62 481.582 116.867C481.973 117.115 482.298 117.447 482.559 117.863C482.819 118.28 482.949 118.781 482.949 119.367C482.949 120.135 482.741 120.812 482.324 121.398C481.908 121.984 481.335 122.447 480.605 122.785C479.889 123.124 479.082 123.293 478.184 123.293ZM491.738 123V121.906C492.988 120.552 494.036 119.406 494.883 118.469C495.742 117.531 496.387 116.73 496.816 116.066C497.259 115.402 497.48 114.81 497.48 114.289C497.48 113.612 497.259 113.091 496.816 112.727C496.387 112.362 495.846 112.18 495.195 112.18C494.609 112.18 494.03 112.336 493.457 112.648C492.884 112.961 492.409 113.312 492.031 113.703V110.93C492.422 110.591 492.943 110.292 493.594 110.031C494.245 109.758 494.941 109.621 495.684 109.621C496.582 109.621 497.363 109.79 498.027 110.129C498.704 110.454 499.232 110.917 499.609 111.516C499.987 112.102 500.176 112.792 500.176 113.586C500.176 114.237 500.078 114.836 499.883 115.383C499.688 115.917 499.395 116.451 499.004 116.984C498.626 117.505 498.164 118.065 497.617 118.664C497.083 119.263 496.471 119.947 495.781 120.715H500.273V123H491.738ZM507.148 109.621C508.021 109.621 508.828 109.823 509.57 110.227C510.312 110.63 510.911 111.21 511.367 111.965C511.823 112.72 512.051 113.612 512.051 114.641C512.051 115.344 511.94 116.034 511.719 116.711C511.497 117.388 511.204 118.046 510.84 118.684C510.475 119.309 510.078 119.895 509.648 120.441C509.232 120.975 508.822 121.464 508.418 121.906C508.014 122.336 507.663 122.701 507.363 123H503.945C504.349 122.622 504.779 122.219 505.234 121.789C505.703 121.346 506.159 120.897 506.602 120.441C507.057 119.973 507.474 119.504 507.852 119.035C508.229 118.566 508.522 118.104 508.73 117.648C508.431 117.935 508.099 118.176 507.734 118.371C507.37 118.553 506.973 118.645 506.543 118.645C505.762 118.645 505.052 118.462 504.414 118.098C503.789 117.72 503.294 117.212 502.93 116.574C502.565 115.936 502.383 115.227 502.383 114.445C502.383 113.781 502.5 113.163 502.734 112.59C502.969 112.004 503.301 111.49 503.73 111.047C504.16 110.591 504.661 110.24 505.234 109.992C505.82 109.745 506.458 109.621 507.148 109.621ZM507.207 112.023C506.829 112.023 506.478 112.121 506.152 112.316C505.827 112.499 505.566 112.759 505.371 113.098C505.189 113.423 505.098 113.801 505.098 114.23C505.098 114.621 505.189 114.973 505.371 115.285C505.566 115.598 505.827 115.845 506.152 116.027C506.478 116.21 506.829 116.301 507.207 116.301C507.598 116.301 507.949 116.21 508.262 116.027C508.587 115.845 508.848 115.598 509.043 115.285C509.251 114.973 509.355 114.621 509.355 114.23C509.355 113.801 509.251 113.423 509.043 113.098C508.848 112.759 508.587 112.499 508.262 112.316C507.949 112.121 507.598 112.023 507.207 112.023ZM518.438 123.293C517.604 123.293 516.868 123.117 516.23 122.766C515.605 122.401 515.085 121.906 514.668 121.281C514.251 120.643 513.932 119.914 513.711 119.094C513.503 118.26 513.398 117.382 513.398 116.457C513.398 115.507 513.503 114.621 513.711 113.801C513.932 112.98 514.251 112.258 514.668 111.633C515.085 110.995 515.605 110.5 516.23 110.148C516.868 109.797 517.604 109.621 518.438 109.621C519.284 109.621 520.02 109.797 520.645 110.148C521.283 110.5 521.81 110.995 522.227 111.633C522.643 112.258 522.956 112.98 523.164 113.801C523.372 114.621 523.477 115.507 523.477 116.457C523.477 117.382 523.372 118.26 523.164 119.094C522.956 119.914 522.643 120.643 522.227 121.281C521.81 121.906 521.283 122.401 520.645 122.766C520.02 123.117 519.284 123.293 518.438 123.293ZM518.438 120.91C518.828 120.91 519.167 120.799 519.453 120.578C519.753 120.357 520 120.044 520.195 119.641C520.391 119.237 520.534 118.768 520.625 118.234C520.729 117.688 520.781 117.095 520.781 116.457C520.781 115.819 520.729 115.233 520.625 114.699C520.534 114.152 520.391 113.677 520.195 113.273C520 112.87 519.753 112.557 519.453 112.336C519.167 112.102 518.828 111.984 518.438 111.984C518.047 111.984 517.702 112.102 517.402 112.336C517.116 112.557 516.875 112.87 516.68 113.273C516.497 113.677 516.354 114.152 516.25 114.699C516.159 115.233 516.113 115.819 516.113 116.457C516.113 117.095 516.159 117.688 516.25 118.234C516.354 118.768 516.497 119.237 516.68 119.641C516.875 120.044 517.116 120.357 517.402 120.578C517.702 120.799 518.047 120.91 518.438 120.91ZM529.043 123.293C528.47 123.293 527.949 123.228 527.48 123.098C527.012 122.967 526.602 122.805 526.25 122.609C525.911 122.414 525.625 122.225 525.391 122.043V119.621C525.703 119.803 526.022 119.992 526.348 120.188C526.686 120.383 527.044 120.552 527.422 120.695C527.812 120.826 528.229 120.891 528.672 120.891C529.193 120.891 529.655 120.819 530.059 120.676C530.475 120.52 530.794 120.298 531.016 120.012C531.25 119.712 531.367 119.341 531.367 118.898C531.367 118.495 531.25 118.143 531.016 117.844C530.781 117.544 530.462 117.316 530.059 117.16C529.655 116.991 529.193 116.906 528.672 116.906C528.177 116.906 527.721 116.958 527.305 117.062C526.901 117.154 526.517 117.264 526.152 117.395V109.914H533.281V112.336H528.535V115.09C528.757 114.999 529.023 114.927 529.336 114.875C529.648 114.81 529.98 114.777 530.332 114.777C530.996 114.777 531.608 114.94 532.168 115.266C532.728 115.578 533.184 116.021 533.535 116.594C533.887 117.154 534.062 117.818 534.062 118.586C534.062 119.589 533.835 120.441 533.379 121.145C532.936 121.848 532.331 122.382 531.562 122.746C530.807 123.111 529.967 123.293 529.043 123.293Z" fill="white"/>
<line opacity="0.1" x1="400.349" y1="83.5" x2="694.349" y2="83.5" stroke="white"/>
<path opacity="0.6" d="M409.775 56C409.397 53.9119 407.726 52.679 405.678 52.679C403.073 52.679 401.184 54.6875 401.184 57.9091C401.184 61.1307 403.073 63.1392 405.678 63.1392C407.726 63.1392 409.397 61.9062 409.775 59.8182H408.542C408.244 61.2301 407.03 61.9858 405.678 61.9858C403.829 61.9858 402.377 60.554 402.377 57.9091C402.377 55.2642 403.829 53.8324 405.678 53.8324C407.03 53.8324 408.244 54.5881 408.542 56H409.775ZM414.71 63.1591C416.778 63.1591 418.171 61.5881 418.171 59.2216C418.171 56.8352 416.778 55.2642 414.71 55.2642C412.642 55.2642 411.25 56.8352 411.25 59.2216C411.25 61.5881 412.642 63.1591 414.71 63.1591ZM414.71 62.1051C413.139 62.1051 412.423 60.7528 412.423 59.2216C412.423 57.6903 413.139 56.3182 414.71 56.3182C416.281 56.3182 416.997 57.6903 416.997 59.2216C416.997 60.7528 416.281 62.1051 414.71 62.1051ZM421.135 58.4062C421.135 57.0739 421.96 56.3182 423.084 56.3182C424.172 56.3182 424.834 57.0291 424.834 58.2273V63H426.007V58.1477C426.007 56.1989 424.968 55.2642 423.422 55.2642C422.268 55.2642 421.552 55.7812 421.195 56.5568H421.095V55.3636H419.962V63H421.135V58.4062ZM431.472 55.3636H429.841V53.5341H428.668V55.3636H427.515V56.358H428.668V61.1307C428.668 62.4631 429.742 63.0994 430.736 63.0994C431.174 63.0994 431.452 63.0199 431.611 62.9602L431.373 61.9062C431.273 61.9261 431.114 61.9659 430.856 61.9659C430.339 61.9659 429.841 61.8068 429.841 60.8125V56.358H431.472V55.3636ZM435.484 63.179C436.816 63.179 437.513 62.4631 437.751 61.9659H437.811V63H438.984V57.9688C438.984 55.5426 437.135 55.2642 436.16 55.2642C435.007 55.2642 433.694 55.6619 433.098 57.054L434.211 57.4517C434.47 56.8949 435.081 56.2983 436.2 56.2983C437.279 56.2983 437.811 56.87 437.811 57.8494V57.8892C437.811 58.456 437.234 58.4062 435.842 58.5852C434.425 58.7692 432.879 59.0824 432.879 60.8324C432.879 62.3239 434.032 63.179 435.484 63.179ZM435.663 62.125C434.728 62.125 434.052 61.7074 434.052 60.892C434.052 59.9972 434.868 59.7188 435.782 59.5994C436.28 59.5398 437.612 59.4006 437.811 59.1619V60.2358C437.811 61.1903 437.055 62.125 435.663 62.125ZM444.228 63.1591C445.918 63.1591 447.032 62.125 447.231 60.7727H446.057C445.839 61.608 445.143 62.1051 444.228 62.1051C442.836 62.1051 441.941 60.9517 441.941 59.1818C441.941 57.4517 442.856 56.3182 444.228 56.3182C445.262 56.3182 445.878 56.9545 446.057 57.6506H447.231C447.032 56.2188 445.819 55.2642 444.208 55.2642C442.14 55.2642 440.768 56.8949 440.768 59.2216C440.768 61.5085 442.08 63.1591 444.228 63.1591ZM452.267 55.3636H450.636V53.5341H449.463V55.3636H448.31V56.358H449.463V61.1307C449.463 62.4631 450.537 63.0994 451.531 63.0994C451.969 63.0994 452.247 63.0199 452.406 62.9602L452.168 61.9062C452.068 61.9261 451.909 61.9659 451.65 61.9659C451.133 61.9659 450.636 61.8068 450.636 60.8125V56.358H452.267V55.3636ZM464.81 52.8182V59.4602C464.81 60.9517 463.786 62.0256 462.086 62.0256C460.386 62.0256 459.361 60.9517 459.361 59.4602V52.8182H458.128V59.5597C458.128 61.6477 459.69 63.179 462.086 63.179C464.482 63.179 466.043 61.6477 466.043 59.5597V52.8182H464.81ZM473.755 57.0739C473.388 55.9901 472.562 55.2642 471.051 55.2642C469.44 55.2642 468.247 56.179 468.247 57.4716C468.247 58.5256 468.873 59.2315 470.275 59.5597L471.548 59.858C472.319 60.0369 472.682 60.4048 472.682 60.9318C472.682 61.5881 471.986 62.125 470.892 62.125C469.932 62.125 469.331 61.7124 469.122 60.892L468.008 61.1705C468.282 62.468 469.351 63.1591 470.912 63.1591C472.687 63.1591 473.895 62.1896 473.895 60.8722C473.895 59.8082 473.228 59.1371 471.866 58.804L470.733 58.5256C469.828 58.3018 469.42 57.9986 469.42 57.4119C469.42 56.7557 470.116 56.2784 471.051 56.2784C472.075 56.2784 472.498 56.8452 472.701 57.3722L473.755 57.0739Z" fill="white"/>
<path opacity="0.6" d="M75.2273 178.182C75.2273 174.5 73.0682 172.205 70.0909 172.205C67.1136 172.205 64.9545 174.5 64.9545 178.182C64.9545 181.864 67.1136 184.159 70.0909 184.159C73.0682 184.159 75.2273 181.864 75.2273 178.182ZM73.8636 178.182C73.8636 181.205 72.2045 182.841 70.0909 182.841C67.9773 182.841 66.3182 181.205 66.3182 178.182C66.3182 175.159 67.9773 173.523 70.0909 173.523C72.2045 173.523 73.8636 175.159 73.8636 178.182ZM82.9148 180.432C82.9148 182.068 81.6648 182.818 80.6648 182.818C79.5511 182.818 78.7557 182 78.7557 180.727V175.273H77.4148V180.818C77.4148 183.045 78.5966 184.114 80.233 184.114C81.5511 184.114 82.4148 183.409 82.8239 182.523H82.9148V184H84.2557V175.273H82.9148V180.432ZM86.7116 184H88.0526V178.477C88.0526 177.295 88.9844 176.432 90.2571 176.432C90.6151 176.432 90.9844 176.5 91.0753 176.523V175.159C90.9219 175.148 90.5696 175.136 90.3707 175.136C89.3253 175.136 88.4162 175.727 88.098 176.591H88.0071V175.273H86.7116V184ZM103.71 175.273H105.074C105.011 173.517 103.392 172.205 101.142 172.205C98.9148 172.205 97.1648 173.5 97.1648 175.455C97.1648 177.023 98.3011 177.955 100.119 178.477L101.551 178.886C102.778 179.227 103.869 179.659 103.869 180.818C103.869 182.091 102.642 182.932 101.028 182.932C99.642 182.932 98.4148 182.318 98.3011 181H96.8466C96.983 182.909 98.5284 184.205 101.028 184.205C103.71 184.205 105.233 182.727 105.233 180.841C105.233 178.659 103.165 177.955 101.96 177.636L100.778 177.318C99.9148 177.091 98.5284 176.636 98.5284 175.386C98.5284 174.273 99.5511 173.455 101.097 173.455C102.506 173.455 103.574 174.125 103.71 175.273ZM112.868 180.432C112.868 182.068 111.618 182.818 110.618 182.818C109.504 182.818 108.709 182 108.709 180.727V175.273H107.368V180.818C107.368 183.045 108.55 184.114 110.186 184.114C111.504 184.114 112.368 183.409 112.777 182.523H112.868V184H114.209V175.273H112.868V180.432ZM116.665 187.273H118.006V182.659H118.119C118.415 183.136 118.983 184.182 120.665 184.182C122.847 184.182 124.369 182.432 124.369 179.659C124.369 176.909 122.847 175.159 120.642 175.159C118.938 175.159 118.415 176.205 118.119 176.659H117.96V175.273H116.665V187.273ZM117.983 179.636C117.983 177.682 118.847 176.364 120.483 176.364C122.188 176.364 123.028 177.795 123.028 179.636C123.028 181.5 122.165 182.977 120.483 182.977C118.869 182.977 117.983 181.614 117.983 179.636ZM126.415 187.273H127.756V182.659H127.869C128.165 183.136 128.733 184.182 130.415 184.182C132.597 184.182 134.119 182.432 134.119 179.659C134.119 176.909 132.597 175.159 130.392 175.159C128.688 175.159 128.165 176.205 127.869 176.659H127.71V175.273H126.415V187.273ZM127.733 179.636C127.733 177.682 128.597 176.364 130.233 176.364C131.938 176.364 132.778 177.795 132.778 179.636C132.778 181.5 131.915 182.977 130.233 182.977C128.619 182.977 127.733 181.614 127.733 179.636ZM139.71 184.182C142.074 184.182 143.665 182.386 143.665 179.682C143.665 176.955 142.074 175.159 139.71 175.159C137.347 175.159 135.756 176.955 135.756 179.682C135.756 182.386 137.347 184.182 139.71 184.182ZM139.71 182.977C137.915 182.977 137.097 181.432 137.097 179.682C137.097 177.932 137.915 176.364 139.71 176.364C141.506 176.364 142.324 177.932 142.324 179.682C142.324 181.432 141.506 182.977 139.71 182.977ZM145.712 184H147.053V178.477C147.053 177.295 147.984 176.432 149.257 176.432C149.615 176.432 149.984 176.5 150.075 176.523V175.159C149.922 175.148 149.57 175.136 149.371 175.136C148.325 175.136 147.416 175.727 147.098 176.591H147.007V175.273H145.712V184ZM156.007 175.273H154.143V173.182H152.803V175.273H151.484V176.409H152.803V181.864C152.803 183.386 154.03 184.114 155.166 184.114C155.666 184.114 155.984 184.023 156.166 183.955L155.893 182.75C155.78 182.773 155.598 182.818 155.303 182.818C154.712 182.818 154.143 182.636 154.143 181.5V176.409H156.007V175.273ZM162.07 173.614H165.729V184H167.138V173.614H170.797V172.364H162.07V173.614ZM175.183 184.182C176.956 184.182 178.251 183.295 178.661 181.977L177.365 181.614C177.024 182.523 176.234 182.977 175.183 182.977C173.609 182.977 172.524 181.96 172.462 180.091H178.797V179.523C178.797 176.273 176.865 175.159 175.047 175.159C172.683 175.159 171.115 177.023 171.115 179.705C171.115 182.386 172.661 184.182 175.183 184.182ZM172.462 178.932C172.553 177.574 173.513 176.364 175.047 176.364C176.501 176.364 177.433 177.455 177.433 178.932H172.462ZM183.405 184.205C184.928 184.205 185.723 183.386 185.996 182.818H186.064V184H187.405V178.25C187.405 175.477 185.291 175.159 184.178 175.159C182.859 175.159 181.359 175.614 180.678 177.205L181.95 177.659C182.246 177.023 182.945 176.341 184.223 176.341C185.456 176.341 186.064 176.994 186.064 178.114V178.159C186.064 178.807 185.405 178.75 183.814 178.955C182.195 179.165 180.428 179.523 180.428 181.523C180.428 183.227 181.746 184.205 183.405 184.205ZM183.609 183C182.541 183 181.768 182.523 181.768 181.591C181.768 180.568 182.7 180.25 183.746 180.114C184.314 180.045 185.837 179.886 186.064 179.614V180.841C186.064 181.932 185.2 183 183.609 183ZM189.852 184H191.193V178.545C191.193 177.267 192.125 176.364 193.17 176.364C194.188 176.364 194.898 177.028 194.898 178.023V184H196.261V178.318C196.261 177.193 196.966 176.364 198.193 176.364C199.148 176.364 199.966 176.869 199.966 178.159V184H201.307V178.159C201.307 176.108 200.205 175.159 198.648 175.159C197.398 175.159 196.483 175.733 196.034 176.636H195.943C195.511 175.705 194.75 175.159 193.602 175.159C192.466 175.159 191.625 175.705 191.261 176.636H191.148V175.273H189.852V184ZM208.259 184H209.599V175.273H208.259V184ZM208.94 173.818C209.463 173.818 209.895 173.409 209.895 172.909C209.895 172.409 209.463 172 208.94 172C208.418 172 207.986 172.409 207.986 172.909C207.986 173.409 208.418 173.818 208.94 173.818ZM218.237 177.227C217.817 175.989 216.874 175.159 215.146 175.159C213.305 175.159 211.942 176.205 211.942 177.682C211.942 178.886 212.658 179.693 214.26 180.068L215.714 180.409C216.595 180.614 217.01 181.034 217.01 181.636C217.01 182.386 216.214 183 214.964 183C213.868 183 213.18 182.528 212.942 181.591L211.669 181.909C211.982 183.392 213.203 184.182 214.987 184.182C217.016 184.182 218.396 183.074 218.396 181.568C218.396 180.352 217.635 179.585 216.078 179.205L214.783 178.886C213.749 178.631 213.283 178.284 213.283 177.614C213.283 176.864 214.078 176.318 215.146 176.318C216.317 176.318 216.8 176.966 217.033 177.568L218.237 177.227ZM227.483 184.205C229.006 184.205 229.801 183.386 230.074 182.818H230.142V184H231.483V178.25C231.483 175.477 229.369 175.159 228.256 175.159C226.938 175.159 225.438 175.614 224.756 177.205L226.028 177.659C226.324 177.023 227.023 176.341 228.301 176.341C229.534 176.341 230.142 176.994 230.142 178.114V178.159C230.142 178.807 229.483 178.75 227.892 178.955C226.273 179.165 224.506 179.523 224.506 181.523C224.506 183.227 225.824 184.205 227.483 184.205ZM227.688 183C226.619 183 225.847 182.523 225.847 181.591C225.847 180.568 226.778 180.25 227.824 180.114C228.392 180.045 229.915 179.886 230.142 179.614V180.841C230.142 181.932 229.278 183 227.688 183ZM240.754 175.273H239.3L236.891 182.227H236.8L234.391 175.273H232.936L236.163 184H237.527L240.754 175.273ZM244.827 184.205C246.349 184.205 247.145 183.386 247.418 182.818H247.486V184H248.827V178.25C248.827 175.477 246.713 175.159 245.599 175.159C244.281 175.159 242.781 175.614 242.099 177.205L243.372 177.659C243.668 177.023 244.366 176.341 245.645 176.341C246.878 176.341 247.486 176.994 247.486 178.114V178.159C247.486 178.807 246.827 178.75 245.236 178.955C243.616 179.165 241.849 179.523 241.849 181.523C241.849 183.227 243.168 184.205 244.827 184.205ZM245.031 183C243.963 183 243.19 182.523 243.19 181.591C243.19 180.568 244.122 180.25 245.168 180.114C245.736 180.045 247.259 179.886 247.486 179.614V180.841C247.486 181.932 246.622 183 245.031 183ZM251.274 184H252.615V175.273H251.274V184ZM251.956 173.818C252.479 173.818 252.911 173.409 252.911 172.909C252.911 172.409 252.479 172 251.956 172C251.433 172 251.001 172.409 251.001 172.909C251.001 173.409 251.433 173.818 251.956 173.818ZM256.412 172.364H255.071V184H256.412V172.364ZM261.436 184.205C262.959 184.205 263.754 183.386 264.027 182.818H264.095V184H265.436V178.25C265.436 175.477 263.322 175.159 262.209 175.159C260.891 175.159 259.391 175.614 258.709 177.205L259.982 177.659C260.277 177.023 260.976 176.341 262.254 176.341C263.487 176.341 264.095 176.994 264.095 178.114V178.159C264.095 178.807 263.436 178.75 261.845 178.955C260.226 179.165 258.459 179.523 258.459 181.523C258.459 183.227 259.777 184.205 261.436 184.205ZM261.641 183C260.572 183 259.8 182.523 259.8 181.591C259.8 180.568 260.732 180.25 261.777 180.114C262.345 180.045 263.868 179.886 264.095 179.614V180.841C264.095 181.932 263.232 183 261.641 183ZM268.065 184H269.361V182.659H269.52C269.815 183.136 270.384 184.182 272.065 184.182C274.247 184.182 275.77 182.432 275.77 179.659C275.77 176.909 274.247 175.159 272.043 175.159C270.338 175.159 269.815 176.205 269.52 176.659H269.406V172.364H268.065V184ZM269.384 179.636C269.384 177.682 270.247 176.364 271.884 176.364C273.588 176.364 274.429 177.795 274.429 179.636C274.429 181.5 273.565 182.977 271.884 182.977C270.27 182.977 269.384 181.614 269.384 179.636ZM279.162 172.364H277.821V184H279.162V172.364ZM285.277 184.182C287.05 184.182 288.345 183.295 288.754 181.977L287.459 181.614C287.118 182.523 286.328 182.977 285.277 182.977C283.703 182.977 282.618 181.96 282.555 180.091H288.891V179.523C288.891 176.273 286.959 175.159 285.141 175.159C282.777 175.159 281.209 177.023 281.209 179.705C281.209 182.386 282.754 184.182 285.277 184.182ZM282.555 178.932C282.646 177.574 283.607 176.364 285.141 176.364C286.595 176.364 287.527 177.455 287.527 178.932H282.555ZM295.408 184H302.749V182.75H297.339V182.659L299.953 179.864C301.953 177.722 302.544 176.722 302.544 175.432C302.544 173.636 301.089 172.205 299.044 172.205C297.004 172.205 295.453 173.591 295.453 175.636H296.794C296.794 174.312 297.652 173.432 298.999 173.432C300.26 173.432 301.226 174.205 301.226 175.432C301.226 176.506 300.595 177.301 299.249 178.773L295.408 182.977V184ZM304.572 181.614H310.05V184H311.391V181.614H312.982V180.364H311.391V172.364H309.686L304.572 180.455V181.614ZM310.05 180.364H306.095V180.273L309.959 174.159H310.05V180.364ZM319.247 171.818H318.02L314.27 185.75H315.497L319.247 171.818ZM321.178 184H322.655L327.837 173.682V172.364H320.382V173.614H326.382V173.705L321.178 184Z" fill="white"/>
<path d="M66.3047 155C66.8255 154.492 67.4049 153.945 68.043 153.359C68.681 152.76 69.2734 152.148 69.8203 151.523C70.3802 150.885 70.8034 150.26 71.0898 149.648C70.7904 149.948 70.4583 150.189 70.0938 150.371C69.7292 150.553 69.332 150.645 68.9023 150.645C68.1081 150.645 67.3984 150.462 66.7734 150.098C66.1484 149.72 65.6536 149.219 65.2891 148.594C64.9245 147.956 64.7422 147.24 64.7422 146.445C64.7422 145.573 64.944 144.772 65.3477 144.043C65.7643 143.301 66.3307 142.715 67.0469 142.285C67.763 141.842 68.5833 141.621 69.5078 141.621C70.3802 141.621 71.1875 141.829 71.9297 142.246C72.6719 142.65 73.2708 143.229 73.7266 143.984C74.1823 144.727 74.4102 145.618 74.4102 146.66C74.4102 147.533 74.2409 148.385 73.9023 149.219C73.5638 150.052 73.1406 150.84 72.6328 151.582C72.125 152.324 71.6042 152.988 71.0703 153.574C70.5495 154.16 70.1003 154.635 69.7227 155H66.3047ZM69.5469 148.301C70.1328 148.301 70.6341 148.105 71.0508 147.715C71.4805 147.311 71.6953 146.816 71.6953 146.23C71.6953 145.592 71.4805 145.065 71.0508 144.648C70.6341 144.232 70.1328 144.023 69.5469 144.023C68.974 144.023 68.4792 144.232 68.0625 144.648C67.6458 145.065 67.4375 145.592 67.4375 146.23C67.4375 146.816 67.6458 147.311 68.0625 147.715C68.4792 148.105 68.974 148.301 69.5469 148.301ZM78.3555 144.414C78.7852 144.414 79.1497 144.57 79.4492 144.883C79.7617 145.182 79.918 145.547 79.918 145.977C79.918 146.406 79.7617 146.777 79.4492 147.09C79.1497 147.389 78.7852 147.539 78.3555 147.539C77.9258 147.539 77.5547 147.389 77.2422 147.09C76.9427 146.777 76.793 146.406 76.793 145.977C76.793 145.547 76.9427 145.182 77.2422 144.883C77.5547 144.57 77.9258 144.414 78.3555 144.414ZM78.3555 152.227C78.7852 152.227 79.1497 152.383 79.4492 152.695C79.7617 152.995 79.918 153.359 79.918 153.789C79.918 154.219 79.7617 154.59 79.4492 154.902C79.1497 155.202 78.7852 155.352 78.3555 155.352C77.9258 155.352 77.5547 155.202 77.2422 154.902C76.9427 154.59 76.793 154.219 76.793 153.789C76.793 153.359 76.9427 152.995 77.2422 152.695C77.5547 152.383 77.9258 152.227 78.3555 152.227ZM87.125 141.621C88.2448 141.621 89.1758 141.934 89.918 142.559C90.6732 143.171 91.2331 143.997 91.5977 145.039C91.9753 146.068 92.1641 147.207 92.1641 148.457C92.1641 149.707 91.9753 150.853 91.5977 151.895C91.2331 152.923 90.6732 153.75 89.918 154.375C89.1758 154.987 88.2448 155.293 87.125 155.293C86.0052 155.293 85.0677 154.987 84.3125 154.375C83.5703 153.75 83.0104 152.923 82.6328 151.895C82.2682 150.853 82.0859 149.707 82.0859 148.457C82.0859 147.207 82.2682 146.068 82.6328 145.039C83.0104 143.997 83.5703 143.171 84.3125 142.559C85.0677 141.934 86.0052 141.621 87.125 141.621ZM87.125 143.984C86.6042 143.984 86.168 144.186 85.8164 144.59C85.4779 144.98 85.224 145.514 85.0547 146.191C84.8854 146.855 84.8008 147.611 84.8008 148.457C84.8008 149.303 84.8854 150.065 85.0547 150.742C85.224 151.406 85.4779 151.934 85.8164 152.324C86.168 152.715 86.6042 152.91 87.125 152.91C87.6458 152.91 88.0755 152.715 88.4141 152.324C88.7656 151.934 89.026 151.406 89.1953 150.742C89.3776 150.065 89.4688 149.303 89.4688 148.457C89.4688 147.611 89.3776 146.855 89.1953 146.191C89.026 145.514 88.7656 144.98 88.4141 144.59C88.0755 144.186 87.6458 143.984 87.125 143.984ZM98.3555 141.621C99.4753 141.621 100.406 141.934 101.148 142.559C101.904 143.171 102.464 143.997 102.828 145.039C103.206 146.068 103.395 147.207 103.395 148.457C103.395 149.707 103.206 150.853 102.828 151.895C102.464 152.923 101.904 153.75 101.148 154.375C100.406 154.987 99.4753 155.293 98.3555 155.293C97.2357 155.293 96.2982 154.987 95.543 154.375C94.8008 153.75 94.2409 152.923 93.8633 151.895C93.4987 150.853 93.3164 149.707 93.3164 148.457C93.3164 147.207 93.4987 146.068 93.8633 145.039C94.2409 143.997 94.8008 143.171 95.543 142.559C96.2982 141.934 97.2357 141.621 98.3555 141.621ZM98.3555 143.984C97.8346 143.984 97.3984 144.186 97.0469 144.59C96.7083 144.98 96.4544 145.514 96.2852 146.191C96.1159 146.855 96.0312 147.611 96.0312 148.457C96.0312 149.303 96.1159 150.065 96.2852 150.742C96.4544 151.406 96.7083 151.934 97.0469 152.324C97.3984 152.715 97.8346 152.91 98.3555 152.91C98.8763 152.91 99.306 152.715 99.6445 152.324C99.9961 151.934 100.257 151.406 100.426 150.742C100.608 150.065 100.699 149.303 100.699 148.457C100.699 147.611 100.608 146.855 100.426 146.191C100.257 145.514 99.9961 144.98 99.6445 144.59C99.306 144.186 98.8763 143.984 98.3555 143.984ZM117.438 141.816L123.531 155H120.348L119.352 152.559H114.176L113.18 155H109.996L116.09 141.816H117.438ZM116.773 146.25L115.133 150.254H118.414L116.773 146.25ZM138.648 141.816V155H135.934V147.031L132.574 150.703H131.793L128.395 147.031V155H125.68V141.816H126.598L132.184 147.637L137.73 141.816H138.648ZM151.559 142.266V145.137H154.293V147.207H151.559V151.465C151.559 151.908 151.656 152.259 151.852 152.52C152.06 152.767 152.366 152.891 152.77 152.891C153.121 152.891 153.421 152.852 153.668 152.773C153.928 152.695 154.169 152.585 154.391 152.441V154.414C154.143 154.661 153.831 154.87 153.453 155.039C153.089 155.208 152.626 155.293 152.066 155.293C151.181 155.293 150.458 155.013 149.898 154.453C149.352 153.88 149.078 153.099 149.078 152.109V147.207H147.301V145.938C147.926 145.716 148.499 145.299 149.02 144.688C149.553 144.076 149.977 143.268 150.289 142.266H151.559ZM161.422 144.883C162.385 144.883 163.264 145.117 164.059 145.586C164.853 146.042 165.491 146.667 165.973 147.461C166.467 148.242 166.715 149.121 166.715 150.098C166.715 151.074 166.467 151.953 165.973 152.734C165.491 153.516 164.853 154.141 164.059 154.609C163.264 155.065 162.385 155.293 161.422 155.293C160.471 155.293 159.592 155.065 158.785 154.609C157.991 154.141 157.353 153.516 156.871 152.734C156.389 151.953 156.148 151.074 156.148 150.098C156.148 149.121 156.389 148.242 156.871 147.461C157.353 146.667 157.991 146.042 158.785 145.586C159.592 145.117 160.471 144.883 161.422 144.883ZM161.422 147.285C160.953 147.285 160.517 147.396 160.113 147.617C159.71 147.839 159.384 148.158 159.137 148.574C158.902 148.991 158.785 149.499 158.785 150.098C158.785 150.697 158.902 151.204 159.137 151.621C159.384 152.038 159.71 152.357 160.113 152.578C160.517 152.786 160.953 152.891 161.422 152.891C161.891 152.891 162.327 152.786 162.73 152.578C163.134 152.357 163.46 152.038 163.707 151.621C163.954 151.204 164.078 150.697 164.078 150.098C164.078 149.499 163.954 148.991 163.707 148.574C163.46 148.158 163.134 147.839 162.73 147.617C162.327 147.396 161.891 147.285 161.422 147.285ZM179.02 141.621C179.775 141.621 180.465 141.771 181.09 142.07C181.715 142.357 182.21 142.767 182.574 143.301C182.952 143.835 183.141 144.466 183.141 145.195C183.141 145.951 182.958 146.562 182.594 147.031C182.229 147.487 181.812 147.845 181.344 148.105C181.904 148.34 182.405 148.73 182.848 149.277C183.303 149.811 183.531 150.449 183.531 151.191C183.531 151.986 183.329 152.695 182.926 153.32C182.535 153.932 182.001 154.414 181.324 154.766C180.647 155.117 179.879 155.293 179.02 155.293C178.16 155.293 177.385 155.117 176.695 154.766C176.018 154.414 175.484 153.932 175.094 153.32C174.703 152.695 174.508 151.986 174.508 151.191C174.508 150.449 174.729 149.811 175.172 149.277C175.615 148.73 176.122 148.34 176.695 148.105C176.214 147.845 175.79 147.487 175.426 147.031C175.074 146.562 174.898 145.951 174.898 145.195C174.898 144.466 175.081 143.835 175.445 143.301C175.81 142.767 176.305 142.357 176.93 142.07C177.555 141.771 178.251 141.621 179.02 141.621ZM179.02 143.887C178.564 143.887 178.16 144.043 177.809 144.355C177.47 144.668 177.301 145.078 177.301 145.586C177.301 146.094 177.47 146.504 177.809 146.816C178.16 147.116 178.564 147.266 179.02 147.266C179.462 147.266 179.859 147.116 180.211 146.816C180.562 146.504 180.738 146.094 180.738 145.586C180.738 145.078 180.562 144.668 180.211 144.355C179.859 144.043 179.462 143.887 179.02 143.887ZM179.02 149.199C178.499 149.199 178.036 149.375 177.633 149.727C177.242 150.078 177.047 150.534 177.047 151.094C177.047 151.654 177.229 152.116 177.594 152.48C177.971 152.845 178.447 153.027 179.02 153.027C179.579 153.027 180.048 152.845 180.426 152.48C180.803 152.116 180.992 151.654 180.992 151.094C180.992 150.534 180.79 150.078 180.387 149.727C179.983 149.375 179.527 149.199 179.02 149.199ZM187.75 144.414C188.18 144.414 188.544 144.57 188.844 144.883C189.156 145.182 189.312 145.547 189.312 145.977C189.312 146.406 189.156 146.777 188.844 147.09C188.544 147.389 188.18 147.539 187.75 147.539C187.32 147.539 186.949 147.389 186.637 147.09C186.337 146.777 186.188 146.406 186.188 145.977C186.188 145.547 186.337 145.182 186.637 144.883C186.949 144.57 187.32 144.414 187.75 144.414ZM187.75 152.227C188.18 152.227 188.544 152.383 188.844 152.695C189.156 152.995 189.312 153.359 189.312 153.789C189.312 154.219 189.156 154.59 188.844 154.902C188.544 155.202 188.18 155.352 187.75 155.352C187.32 155.352 186.949 155.202 186.637 154.902C186.337 154.59 186.188 154.219 186.188 153.789C186.188 153.359 186.337 152.995 186.637 152.695C186.949 152.383 187.32 152.227 187.75 152.227ZM196.52 141.621C197.639 141.621 198.57 141.934 199.312 142.559C200.068 143.171 200.628 143.997 200.992 145.039C201.37 146.068 201.559 147.207 201.559 148.457C201.559 149.707 201.37 150.853 200.992 151.895C200.628 152.923 200.068 153.75 199.312 154.375C198.57 154.987 197.639 155.293 196.52 155.293C195.4 155.293 194.462 154.987 193.707 154.375C192.965 153.75 192.405 152.923 192.027 151.895C191.663 150.853 191.48 149.707 191.48 148.457C191.48 147.207 191.663 146.068 192.027 145.039C192.405 143.997 192.965 143.171 193.707 142.559C194.462 141.934 195.4 141.621 196.52 141.621ZM196.52 143.984C195.999 143.984 195.562 144.186 195.211 144.59C194.872 144.98 194.618 145.514 194.449 146.191C194.28 146.855 194.195 147.611 194.195 148.457C194.195 149.303 194.28 150.065 194.449 150.742C194.618 151.406 194.872 151.934 195.211 152.324C195.562 152.715 195.999 152.91 196.52 152.91C197.04 152.91 197.47 152.715 197.809 152.324C198.16 151.934 198.421 151.406 198.59 150.742C198.772 150.065 198.863 149.303 198.863 148.457C198.863 147.611 198.772 146.855 198.59 146.191C198.421 145.514 198.16 144.98 197.809 144.59C197.47 144.186 197.04 143.984 196.52 143.984ZM207.75 141.621C208.87 141.621 209.801 141.934 210.543 142.559C211.298 143.171 211.858 143.997 212.223 145.039C212.6 146.068 212.789 147.207 212.789 148.457C212.789 149.707 212.6 150.853 212.223 151.895C211.858 152.923 211.298 153.75 210.543 154.375C209.801 154.987 208.87 155.293 207.75 155.293C206.63 155.293 205.693 154.987 204.938 154.375C204.195 153.75 203.635 152.923 203.258 151.895C202.893 150.853 202.711 149.707 202.711 148.457C202.711 147.207 202.893 146.068 203.258 145.039C203.635 143.997 204.195 143.171 204.938 142.559C205.693 141.934 206.63 141.621 207.75 141.621ZM207.75 143.984C207.229 143.984 206.793 144.186 206.441 144.59C206.103 144.98 205.849 145.514 205.68 146.191C205.51 146.855 205.426 147.611 205.426 148.457C205.426 149.303 205.51 150.065 205.68 150.742C205.849 151.406 206.103 151.934 206.441 152.324C206.793 152.715 207.229 152.91 207.75 152.91C208.271 152.91 208.701 152.715 209.039 152.324C209.391 151.934 209.651 151.406 209.82 150.742C210.003 150.065 210.094 149.303 210.094 148.457C210.094 147.611 210.003 146.855 209.82 146.191C209.651 145.514 209.391 144.98 209.039 144.59C208.701 144.186 208.271 143.984 207.75 143.984ZM226.461 141.914C227.073 141.914 227.672 142.018 228.258 142.227C228.844 142.435 229.371 142.741 229.84 143.145C230.322 143.548 230.699 144.036 230.973 144.609C231.259 145.169 231.402 145.814 231.402 146.543C231.402 147.428 231.174 148.216 230.719 148.906C230.276 149.583 229.684 150.117 228.941 150.508C228.199 150.898 227.392 151.094 226.52 151.094C225.934 151.094 225.406 151.035 224.938 150.918C224.469 150.801 224.078 150.664 223.766 150.508V155H221.051V141.914H226.461ZM223.766 144.453V148.32C224.052 148.438 224.397 148.542 224.801 148.633C225.217 148.711 225.641 148.75 226.07 148.75C226.852 148.75 227.47 148.535 227.926 148.105C228.395 147.663 228.629 147.142 228.629 146.543C228.629 145.853 228.368 145.332 227.848 144.98C227.327 144.629 226.715 144.453 226.012 144.453H223.766ZM247.105 141.816V155H244.391V147.031L241.031 150.703H240.25L236.852 147.031V155H234.137V141.816H235.055L240.641 147.637L246.188 141.816H247.105Z" fill="white"/>
<path d="M78.9219 109.816V123H76.207V115.031L72.8477 118.703H72.0664L68.668 115.031V123H65.9531V109.816H66.8711L72.457 115.637L78.0039 109.816H78.9219ZM86.9883 112.883C87.9518 112.883 88.8307 113.117 89.625 113.586C90.4193 114.042 91.0573 114.667 91.5391 115.461C92.0339 116.242 92.2812 117.121 92.2812 118.098C92.2812 119.074 92.0339 119.953 91.5391 120.734C91.0573 121.516 90.4193 122.141 89.625 122.609C88.8307 123.065 87.9518 123.293 86.9883 123.293C86.0378 123.293 85.1589 123.065 84.3516 122.609C83.5573 122.141 82.9193 121.516 82.4375 120.734C81.9557 119.953 81.7148 119.074 81.7148 118.098C81.7148 117.121 81.9557 116.242 82.4375 115.461C82.9193 114.667 83.5573 114.042 84.3516 113.586C85.1589 113.117 86.0378 112.883 86.9883 112.883ZM86.9883 115.285C86.5195 115.285 86.0833 115.396 85.6797 115.617C85.276 115.839 84.9505 116.158 84.7031 116.574C84.4688 116.991 84.3516 117.499 84.3516 118.098C84.3516 118.697 84.4688 119.204 84.7031 119.621C84.9505 120.038 85.276 120.357 85.6797 120.578C86.0833 120.786 86.5195 120.891 86.9883 120.891C87.457 120.891 87.8932 120.786 88.2969 120.578C88.7005 120.357 89.026 120.038 89.2734 119.621C89.5208 119.204 89.6445 118.697 89.6445 118.098C89.6445 117.499 89.5208 116.991 89.2734 116.574C89.026 116.158 88.7005 115.839 88.2969 115.617C87.8932 115.396 87.457 115.285 86.9883 115.285ZM97.1055 113.137V114.543C97.4049 114.139 97.8086 113.762 98.3164 113.41C98.8372 113.059 99.4297 112.883 100.094 112.883C101.096 112.883 101.936 113.221 102.613 113.898C103.29 114.576 103.629 115.591 103.629 116.945V123H101.148L101.129 117.277C101.129 116.613 100.966 116.118 100.641 115.793C100.328 115.467 99.8919 115.305 99.332 115.305C98.8893 115.305 98.4727 115.448 98.082 115.734C97.7044 116.021 97.3789 116.359 97.1055 116.75V123H94.625V113.137H97.1055ZM115.855 108.938V123H113.375V121.34C113.089 121.874 112.672 122.336 112.125 122.727C111.578 123.104 110.94 123.293 110.211 123.293C109.417 123.293 108.681 123.091 108.004 122.688C107.34 122.284 106.806 121.698 106.402 120.93C105.999 120.161 105.797 119.23 105.797 118.137C105.797 117.043 105.999 116.105 106.402 115.324C106.819 114.543 107.372 113.944 108.062 113.527C108.766 113.098 109.54 112.883 110.387 112.883C110.921 112.883 111.461 113.007 112.008 113.254C112.555 113.501 113.01 113.833 113.375 114.25V108.938H115.855ZM110.895 115.324C110.374 115.324 109.924 115.461 109.547 115.734C109.182 115.995 108.896 116.34 108.688 116.77C108.479 117.186 108.375 117.642 108.375 118.137C108.375 118.879 108.596 119.51 109.039 120.031C109.495 120.552 110.094 120.812 110.836 120.812C111.279 120.812 111.689 120.695 112.066 120.461C112.457 120.227 112.77 119.901 113.004 119.484C113.251 119.055 113.375 118.54 113.375 117.941V116.535C113.023 116.158 112.639 115.865 112.223 115.656C111.819 115.435 111.376 115.324 110.895 115.324ZM122.809 112.883C123.342 112.883 123.883 113.007 124.43 113.254C124.977 113.501 125.432 113.833 125.797 114.25V113.137H128.277V123H125.797V121.34C125.51 121.874 125.094 122.336 124.547 122.727C124 123.104 123.362 123.293 122.633 123.293C121.839 123.293 121.103 123.091 120.426 122.688C119.762 122.284 119.228 121.698 118.824 120.93C118.421 120.161 118.219 119.23 118.219 118.137C118.219 117.043 118.421 116.105 118.824 115.324C119.241 114.543 119.794 113.944 120.484 113.527C121.188 113.098 121.962 112.883 122.809 112.883ZM123.316 115.305C122.796 115.305 122.346 115.441 121.969 115.715C121.604 115.975 121.318 116.32 121.109 116.75C120.901 117.18 120.797 117.642 120.797 118.137C120.797 118.879 121.018 119.51 121.461 120.031C121.917 120.552 122.516 120.812 123.258 120.812C123.701 120.812 124.111 120.695 124.488 120.461C124.879 120.227 125.191 119.901 125.426 119.484C125.673 119.055 125.797 118.54 125.797 117.941V116.535C125.445 116.158 125.061 115.858 124.645 115.637C124.241 115.415 123.798 115.305 123.316 115.305ZM132.887 113.137L135.699 119.426L138.434 113.137H141.266L134.098 127.688H131.285L134.254 122.277L129.996 113.137H132.887ZM158.922 109.914V112.355H154.742V122.941H152.047V112.355H147.867V109.914H158.922ZM164.781 112.883C165.745 112.883 166.624 113.117 167.418 113.586C168.212 114.042 168.85 114.667 169.332 115.461C169.827 116.242 170.074 117.121 170.074 118.098C170.074 119.074 169.827 119.953 169.332 120.734C168.85 121.516 168.212 122.141 167.418 122.609C166.624 123.065 165.745 123.293 164.781 123.293C163.831 123.293 162.952 123.065 162.145 122.609C161.35 122.141 160.712 121.516 160.23 120.734C159.749 119.953 159.508 119.074 159.508 118.098C159.508 117.121 159.749 116.242 160.23 115.461C160.712 114.667 161.35 114.042 162.145 113.586C162.952 113.117 163.831 112.883 164.781 112.883ZM164.781 115.285C164.312 115.285 163.876 115.396 163.473 115.617C163.069 115.839 162.743 116.158 162.496 116.574C162.262 116.991 162.145 117.499 162.145 118.098C162.145 118.697 162.262 119.204 162.496 119.621C162.743 120.038 163.069 120.357 163.473 120.578C163.876 120.786 164.312 120.891 164.781 120.891C165.25 120.891 165.686 120.786 166.09 120.578C166.493 120.357 166.819 120.038 167.066 119.621C167.314 119.204 167.438 118.697 167.438 118.098C167.438 117.499 167.314 116.991 167.066 116.574C166.819 116.158 166.493 115.839 166.09 115.617C165.686 115.396 165.25 115.285 164.781 115.285ZM186.559 115.656V118.098H181.422V123H178.707V109.914H187.633V112.355H181.422V115.656H186.559ZM196.891 115.91C196.474 115.676 196.038 115.559 195.582 115.559C195.009 115.559 194.534 115.747 194.156 116.125C193.779 116.49 193.447 116.945 193.16 117.492V123H190.68V113.137H193.16V114.992C193.499 114.406 193.896 113.918 194.352 113.527C194.82 113.137 195.348 112.941 195.934 112.941C196.285 112.941 196.604 113 196.891 113.117V115.91ZM200.875 108C201.344 108 201.747 108.169 202.086 108.508C202.424 108.833 202.594 109.224 202.594 109.68C202.594 110.122 202.424 110.513 202.086 110.852C201.747 111.19 201.344 111.359 200.875 111.359C200.406 111.359 200.003 111.19 199.664 110.852C199.339 110.513 199.176 110.122 199.176 109.68C199.176 109.224 199.339 108.833 199.664 108.508C200.003 108.169 200.406 108 200.875 108ZM202.32 113.137V123H199.84V115.246H198.258V113.137H202.32ZM214.82 108.938V123H212.34V121.34C212.053 121.874 211.637 122.336 211.09 122.727C210.543 123.104 209.905 123.293 209.176 123.293C208.382 123.293 207.646 123.091 206.969 122.688C206.305 122.284 205.771 121.698 205.367 120.93C204.964 120.161 204.762 119.23 204.762 118.137C204.762 117.043 204.964 116.105 205.367 115.324C205.784 114.543 206.337 113.944 207.027 113.527C207.73 113.098 208.505 112.883 209.352 112.883C209.885 112.883 210.426 113.007 210.973 113.254C211.52 113.501 211.975 113.833 212.34 114.25V108.938H214.82ZM209.859 115.324C209.339 115.324 208.889 115.461 208.512 115.734C208.147 115.995 207.861 116.34 207.652 116.77C207.444 117.186 207.34 117.642 207.34 118.137C207.34 118.879 207.561 119.51 208.004 120.031C208.46 120.552 209.059 120.812 209.801 120.812C210.243 120.812 210.654 120.695 211.031 120.461C211.422 120.227 211.734 119.901 211.969 119.484C212.216 119.055 212.34 118.54 212.34 117.941V116.535C211.988 116.158 211.604 115.865 211.188 115.656C210.784 115.435 210.341 115.324 209.859 115.324ZM221.773 112.883C222.307 112.883 222.848 113.007 223.395 113.254C223.941 113.501 224.397 113.833 224.762 114.25V113.137H227.242V123H224.762V121.34C224.475 121.874 224.059 122.336 223.512 122.727C222.965 123.104 222.327 123.293 221.598 123.293C220.803 123.293 220.068 123.091 219.391 122.688C218.727 122.284 218.193 121.698 217.789 120.93C217.385 120.161 217.184 119.23 217.184 118.137C217.184 117.043 217.385 116.105 217.789 115.324C218.206 114.543 218.759 113.944 219.449 113.527C220.152 113.098 220.927 112.883 221.773 112.883ZM222.281 115.305C221.76 115.305 221.311 115.441 220.934 115.715C220.569 115.975 220.283 116.32 220.074 116.75C219.866 117.18 219.762 117.642 219.762 118.137C219.762 118.879 219.983 119.51 220.426 120.031C220.882 120.552 221.48 120.812 222.223 120.812C222.665 120.812 223.076 120.695 223.453 120.461C223.844 120.227 224.156 119.901 224.391 119.484C224.638 119.055 224.762 118.54 224.762 117.941V116.535C224.41 116.158 224.026 115.858 223.609 115.637C223.206 115.415 222.763 115.305 222.281 115.305ZM231.852 113.137L234.664 119.426L237.398 113.137H240.23L233.062 127.688H230.25L233.219 122.277L228.961 113.137H231.852Z" fill="white"/>
<line opacity="0.1" x1="64" y1="83.5" x2="358" y2="83.5" stroke="white"/>
<path opacity="0.6" d="M67.0824 63H68.3551L70.6023 54.8864H70.6818L72.929 63H74.2017L76.9858 52.8182H75.733L73.6051 61.1108H73.5057L71.3381 52.8182H69.946L67.7784 61.1108H67.679L65.5511 52.8182H64.2983L67.0824 63ZM80.7543 63.1591C82.8224 63.1591 84.2145 61.5881 84.2145 59.2216C84.2145 56.8352 82.8224 55.2642 80.7543 55.2642C78.6861 55.2642 77.294 56.8352 77.294 59.2216C77.294 61.5881 78.6861 63.1591 80.7543 63.1591ZM80.7543 62.1051C79.1832 62.1051 78.4673 60.7528 78.4673 59.2216C78.4673 57.6903 79.1832 56.3182 80.7543 56.3182C82.3253 56.3182 83.0412 57.6903 83.0412 59.2216C83.0412 60.7528 82.3253 62.1051 80.7543 62.1051ZM86.0055 63H87.1788V58.1676C87.1788 57.1335 87.9941 56.3778 89.1078 56.3778C89.421 56.3778 89.7441 56.4375 89.8237 56.4574V55.2642C89.6895 55.2543 89.3812 55.2443 89.2072 55.2443C88.2924 55.2443 87.497 55.7614 87.2186 56.517H87.139V55.3636H86.0055V63ZM91.2145 63H92.3878V60.1413L93.2081 59.3807L96.0668 63H97.5582L94.093 58.625L97.3196 55.3636H95.8679L92.527 58.7642H92.3878V52.8182H91.2145V63ZM98.8297 63H100.003V55.3636H98.8297V63ZM99.4263 54.0909C99.8837 54.0909 100.262 53.733 100.262 53.2955C100.262 52.858 99.8837 52.5 99.4263 52.5C98.9689 52.5 98.5911 52.858 98.5911 53.2955C98.5911 53.733 98.9689 54.0909 99.4263 54.0909ZM103.325 58.4062C103.325 57.0739 104.151 56.3182 105.274 56.3182C106.363 56.3182 107.024 57.0291 107.024 58.2273V63H108.197V58.1477C108.197 56.1989 107.158 55.2642 105.612 55.2642C104.459 55.2642 103.743 55.7812 103.385 56.5568H103.286V55.3636H102.152V63H103.325V58.4062ZM113.424 66.0227C115.253 66.0227 116.725 65.1875 116.725 63.2188V55.3636H115.591V56.5767H115.472C115.214 56.179 114.736 55.2642 113.245 55.2642C111.316 55.2642 109.983 56.7955 109.983 59.142C109.983 61.5284 111.376 62.8807 113.225 62.8807C114.716 62.8807 115.194 62.0057 115.452 61.5881H115.552V63.1392C115.552 64.4119 114.657 64.9886 113.424 64.9886C112.037 64.9886 111.55 64.2578 111.236 63.8352L110.302 64.4915C110.779 65.2919 111.719 66.0227 113.424 66.0227ZM113.384 61.8267C111.912 61.8267 111.157 60.7131 111.157 59.1222C111.157 57.571 111.893 56.3182 113.384 56.3182C114.816 56.3182 115.572 57.4716 115.572 59.1222C115.572 60.8125 114.796 61.8267 113.384 61.8267ZM123.983 58.4062C123.983 57.0739 124.834 56.3182 125.992 56.3182C127.096 56.3182 127.762 57.0142 127.762 58.2273V63H128.935V58.1477C128.935 56.1839 127.891 55.2642 126.33 55.2642C125.127 55.2642 124.441 55.7663 124.083 56.5568H123.983V52.8182H122.81V63H123.983V58.4062ZM134.184 63.1591C136.252 63.1591 137.644 61.5881 137.644 59.2216C137.644 56.8352 136.252 55.2642 134.184 55.2642C132.116 55.2642 130.724 56.8352 130.724 59.2216C130.724 61.5881 132.116 63.1591 134.184 63.1591ZM134.184 62.1051C132.613 62.1051 131.897 60.7528 131.897 59.2216C131.897 57.6903 132.613 56.3182 134.184 56.3182C135.755 56.3182 136.471 57.6903 136.471 59.2216C136.471 60.7528 135.755 62.1051 134.184 62.1051ZM144.248 59.8778C144.248 61.3097 143.154 61.9659 142.279 61.9659C141.305 61.9659 140.608 61.25 140.608 60.1364V55.3636H139.435V60.2159C139.435 62.1648 140.469 63.0994 141.901 63.0994C143.055 63.0994 143.81 62.483 144.168 61.7074H144.248V63H145.421V55.3636H144.248V59.8778ZM147.57 63H148.743V58.1676C148.743 57.1335 149.559 56.3778 150.672 56.3778C150.985 56.3778 151.309 56.4375 151.388 56.4574V55.2642C151.254 55.2543 150.946 55.2443 150.772 55.2443C149.857 55.2443 149.061 55.7614 148.783 56.517H148.703V55.3636H147.57V63ZM158.188 57.0739C157.82 55.9901 156.995 55.2642 155.483 55.2642C153.873 55.2642 152.68 56.179 152.68 57.4716C152.68 58.5256 153.306 59.2315 154.708 59.5597L155.981 59.858C156.751 60.0369 157.114 60.4048 157.114 60.9318C157.114 61.5881 156.418 62.125 155.324 62.125C154.365 62.125 153.763 61.7124 153.555 60.892L152.441 61.1705C152.714 62.468 153.783 63.1591 155.344 63.1591C157.119 63.1591 158.327 62.1896 158.327 60.8722C158.327 59.8082 157.661 59.1371 156.299 58.804L155.165 58.5256C154.26 58.3018 153.853 57.9986 153.853 57.4119C153.853 56.7557 154.549 56.2784 155.483 56.2784C156.508 56.2784 156.93 56.8452 157.134 57.3722L158.188 57.0739Z" fill="white"/>
</svg>
